<svg width="24" height="24" viewBox="0 0 24 24" fill="none" xmlns="http://www.w3.org/2000/svg">
<g clip-path="url(#clip0_3132_3081)">
<path d="M23.6245 0.147321C23.9192 0.361607 24.0397 0.647321 23.9861 1.00446L20.5576 21.5759C20.5129 21.8348 20.3701 22.0357 20.129 22.1786C20.004 22.25 19.8656 22.2857 19.7138 22.2857C19.6156 22.2857 19.5085 22.2634 19.3924 22.2188L13.3254 19.7411L10.0844 23.692C9.92364 23.8973 9.70489 24 9.42811 24C9.31203 24 9.21382 23.9821 9.13346 23.9464C8.96382 23.8839 8.82766 23.779 8.72498 23.6317C8.6223 23.4844 8.57096 23.3214 8.57096 23.1429V18.4688L20.1424 4.28571L5.82543 16.6741L0.535249 14.5045C0.204892 14.3795 0.0263207 14.1339 -0.00046503 13.7679C-0.0183222 13.4107 0.124535 13.1473 0.428106 12.9777L22.7138 0.120536C22.8477 0.0401786 22.9906 0 23.1424 0C23.321 0 23.4817 0.0491071 23.6245 0.147321Z" fill="white"/>
</g>
<defs>
<clipPath id="clip0_3132_3081">
<rect width="24" height="24" fill="white"/>
</clipPath>
</defs>
</svg>
